<mxfile host="app.diagrams.net" agent="Mozilla/5.0 (Windows NT 10.0; Win64; x64) AppleWebKit/537.36 (KHTML, like Gecko) Chrome/136.0.0.0 Safari/537.36 Edg/136.0.0.0" version="26.2.14">
  <diagram name="Page-1" id="fP_GM7rYgK_flfsCJTKe">
    <mxGraphModel dx="795" dy="412" grid="1" gridSize="10" guides="1" tooltips="1" connect="1" arrows="1" fold="1" page="1" pageScale="1" pageWidth="850" pageHeight="1100" math="0" shadow="0">
      <root>
        <mxCell id="0" />
        <mxCell id="1" parent="0" />
        <mxCell id="Ekm0_aFzBxtnINHx6pyU-1" value="Duck" style="swimlane;fontStyle=1;align=center;verticalAlign=top;childLayout=stackLayout;horizontal=1;startSize=26;horizontalStack=0;resizeParent=1;resizeParentMax=0;resizeLast=0;collapsible=1;marginBottom=0;whiteSpace=wrap;html=1;" vertex="1" parent="1">
          <mxGeometry x="430" width="140" height="70" as="geometry" />
        </mxCell>
        <mxCell id="Ekm0_aFzBxtnINHx6pyU-3" value="" style="line;strokeWidth=1;fillColor=none;align=left;verticalAlign=middle;spacingTop=-1;spacingLeft=3;spacingRight=3;rotatable=0;labelPosition=right;points=[];portConstraint=eastwest;strokeColor=inherit;" vertex="1" parent="Ekm0_aFzBxtnINHx6pyU-1">
          <mxGeometry y="26" width="140" height="8" as="geometry" />
        </mxCell>
        <mxCell id="Ekm0_aFzBxtnINHx6pyU-4" value="+quack: String&lt;div&gt;+swim: String&lt;/div&gt;" style="text;strokeColor=none;fillColor=none;align=left;verticalAlign=top;spacingLeft=4;spacingRight=4;overflow=hidden;rotatable=0;points=[[0,0.5],[1,0.5]];portConstraint=eastwest;whiteSpace=wrap;html=1;" vertex="1" parent="Ekm0_aFzBxtnINHx6pyU-1">
          <mxGeometry y="34" width="140" height="36" as="geometry" />
        </mxCell>
        <mxCell id="Ekm0_aFzBxtnINHx6pyU-5" value="&amp;lt;&amp;lt;Abstract&amp;gt;&amp;gt;&lt;div&gt;Swim&lt;/div&gt;" style="swimlane;fontStyle=1;align=center;verticalAlign=top;childLayout=stackLayout;horizontal=1;startSize=50;horizontalStack=0;resizeParent=1;resizeParentMax=0;resizeLast=0;collapsible=1;marginBottom=0;whiteSpace=wrap;html=1;" vertex="1" parent="1">
          <mxGeometry x="320" y="113" width="140" height="124" as="geometry" />
        </mxCell>
        <mxCell id="Ekm0_aFzBxtnINHx6pyU-6" value="" style="line;strokeWidth=1;fillColor=none;align=left;verticalAlign=middle;spacingTop=-1;spacingLeft=3;spacingRight=3;rotatable=0;labelPosition=right;points=[];portConstraint=eastwest;strokeColor=inherit;" vertex="1" parent="Ekm0_aFzBxtnINHx6pyU-5">
          <mxGeometry y="50" width="140" height="8" as="geometry" />
        </mxCell>
        <mxCell id="Ekm0_aFzBxtnINHx6pyU-7" value="+swim: String" style="text;strokeColor=none;fillColor=none;align=left;verticalAlign=top;spacingLeft=4;spacingRight=4;overflow=hidden;rotatable=0;points=[[0,0.5],[1,0.5]];portConstraint=eastwest;whiteSpace=wrap;html=1;" vertex="1" parent="Ekm0_aFzBxtnINHx6pyU-5">
          <mxGeometry y="58" width="140" height="66" as="geometry" />
        </mxCell>
        <mxCell id="Ekm0_aFzBxtnINHx6pyU-8" value="&amp;lt;&amp;lt;Abstract&amp;gt;&amp;gt;&lt;div&gt;Quack&lt;/div&gt;" style="swimlane;fontStyle=1;align=center;verticalAlign=top;childLayout=stackLayout;horizontal=1;startSize=50;horizontalStack=0;resizeParent=1;resizeParentMax=0;resizeLast=0;collapsible=1;marginBottom=0;whiteSpace=wrap;html=1;" vertex="1" parent="1">
          <mxGeometry x="530" y="113" width="140" height="124" as="geometry" />
        </mxCell>
        <mxCell id="Ekm0_aFzBxtnINHx6pyU-9" value="" style="line;strokeWidth=1;fillColor=none;align=left;verticalAlign=middle;spacingTop=-1;spacingLeft=3;spacingRight=3;rotatable=0;labelPosition=right;points=[];portConstraint=eastwest;strokeColor=inherit;" vertex="1" parent="Ekm0_aFzBxtnINHx6pyU-8">
          <mxGeometry y="50" width="140" height="8" as="geometry" />
        </mxCell>
        <mxCell id="Ekm0_aFzBxtnINHx6pyU-10" value="+quack: String" style="text;strokeColor=none;fillColor=none;align=left;verticalAlign=top;spacingLeft=4;spacingRight=4;overflow=hidden;rotatable=0;points=[[0,0.5],[1,0.5]];portConstraint=eastwest;whiteSpace=wrap;html=1;" vertex="1" parent="Ekm0_aFzBxtnINHx6pyU-8">
          <mxGeometry y="58" width="140" height="66" as="geometry" />
        </mxCell>
        <mxCell id="Ekm0_aFzBxtnINHx6pyU-11" value="" style="endArrow=open;endFill=1;endSize=12;html=1;rounded=0;entryX=0.5;entryY=0;entryDx=0;entryDy=0;exitX=0;exitY=0.5;exitDx=0;exitDy=0;" edge="1" parent="1" source="Ekm0_aFzBxtnINHx6pyU-4" target="Ekm0_aFzBxtnINHx6pyU-5">
          <mxGeometry width="160" relative="1" as="geometry">
            <mxPoint x="350" y="40" as="sourcePoint" />
            <mxPoint x="510" y="40" as="targetPoint" />
          </mxGeometry>
        </mxCell>
        <mxCell id="Ekm0_aFzBxtnINHx6pyU-12" value="" style="endArrow=open;endFill=1;endSize=12;html=1;rounded=0;entryX=0.5;entryY=0;entryDx=0;entryDy=0;exitX=1;exitY=0.5;exitDx=0;exitDy=0;" edge="1" parent="1" source="Ekm0_aFzBxtnINHx6pyU-4" target="Ekm0_aFzBxtnINHx6pyU-8">
          <mxGeometry width="160" relative="1" as="geometry">
            <mxPoint x="438" y="46" as="sourcePoint" />
            <mxPoint x="400" y="123" as="targetPoint" />
          </mxGeometry>
        </mxCell>
        <mxCell id="Ekm0_aFzBxtnINHx6pyU-13" value="Floating" style="swimlane;fontStyle=1;align=center;verticalAlign=top;childLayout=stackLayout;horizontal=1;startSize=30;horizontalStack=0;resizeParent=1;resizeParentMax=0;resizeLast=0;collapsible=1;marginBottom=0;whiteSpace=wrap;html=1;" vertex="1" parent="1">
          <mxGeometry x="30" y="290" width="140" height="104" as="geometry" />
        </mxCell>
        <mxCell id="Ekm0_aFzBxtnINHx6pyU-14" value="" style="line;strokeWidth=1;fillColor=none;align=left;verticalAlign=middle;spacingTop=-1;spacingLeft=3;spacingRight=3;rotatable=0;labelPosition=right;points=[];portConstraint=eastwest;strokeColor=inherit;" vertex="1" parent="Ekm0_aFzBxtnINHx6pyU-13">
          <mxGeometry y="30" width="140" height="8" as="geometry" />
        </mxCell>
        <mxCell id="Ekm0_aFzBxtnINHx6pyU-15" value="&lt;div&gt;+swim: String&lt;/div&gt;" style="text;strokeColor=none;fillColor=none;align=left;verticalAlign=top;spacingLeft=4;spacingRight=4;overflow=hidden;rotatable=0;points=[[0,0.5],[1,0.5]];portConstraint=eastwest;whiteSpace=wrap;html=1;" vertex="1" parent="Ekm0_aFzBxtnINHx6pyU-13">
          <mxGeometry y="38" width="140" height="66" as="geometry" />
        </mxCell>
        <mxCell id="Ekm0_aFzBxtnINHx6pyU-16" value="NoSwim" style="swimlane;fontStyle=1;align=center;verticalAlign=top;childLayout=stackLayout;horizontal=1;startSize=30;horizontalStack=0;resizeParent=1;resizeParentMax=0;resizeLast=0;collapsible=1;marginBottom=0;whiteSpace=wrap;html=1;" vertex="1" parent="1">
          <mxGeometry x="180" y="290" width="140" height="104" as="geometry" />
        </mxCell>
        <mxCell id="Ekm0_aFzBxtnINHx6pyU-17" value="" style="line;strokeWidth=1;fillColor=none;align=left;verticalAlign=middle;spacingTop=-1;spacingLeft=3;spacingRight=3;rotatable=0;labelPosition=right;points=[];portConstraint=eastwest;strokeColor=inherit;" vertex="1" parent="Ekm0_aFzBxtnINHx6pyU-16">
          <mxGeometry y="30" width="140" height="8" as="geometry" />
        </mxCell>
        <mxCell id="Ekm0_aFzBxtnINHx6pyU-18" value="+swim: String" style="text;strokeColor=none;fillColor=none;align=left;verticalAlign=top;spacingLeft=4;spacingRight=4;overflow=hidden;rotatable=0;points=[[0,0.5],[1,0.5]];portConstraint=eastwest;whiteSpace=wrap;html=1;" vertex="1" parent="Ekm0_aFzBxtnINHx6pyU-16">
          <mxGeometry y="38" width="140" height="66" as="geometry" />
        </mxCell>
        <mxCell id="Ekm0_aFzBxtnINHx6pyU-19" value="Squeak" style="swimlane;fontStyle=1;align=center;verticalAlign=top;childLayout=stackLayout;horizontal=1;startSize=30;horizontalStack=0;resizeParent=1;resizeParentMax=0;resizeLast=0;collapsible=1;marginBottom=0;whiteSpace=wrap;html=1;" vertex="1" parent="1">
          <mxGeometry x="570" y="290" width="140" height="104" as="geometry" />
        </mxCell>
        <mxCell id="Ekm0_aFzBxtnINHx6pyU-20" value="" style="line;strokeWidth=1;fillColor=none;align=left;verticalAlign=middle;spacingTop=-1;spacingLeft=3;spacingRight=3;rotatable=0;labelPosition=right;points=[];portConstraint=eastwest;strokeColor=inherit;" vertex="1" parent="Ekm0_aFzBxtnINHx6pyU-19">
          <mxGeometry y="30" width="140" height="8" as="geometry" />
        </mxCell>
        <mxCell id="Ekm0_aFzBxtnINHx6pyU-21" value="+quack: String" style="text;strokeColor=none;fillColor=none;align=left;verticalAlign=top;spacingLeft=4;spacingRight=4;overflow=hidden;rotatable=0;points=[[0,0.5],[1,0.5]];portConstraint=eastwest;whiteSpace=wrap;html=1;" vertex="1" parent="Ekm0_aFzBxtnINHx6pyU-19">
          <mxGeometry y="38" width="140" height="66" as="geometry" />
        </mxCell>
        <mxCell id="Ekm0_aFzBxtnINHx6pyU-22" value="NormalQuack" style="swimlane;fontStyle=1;align=center;verticalAlign=top;childLayout=stackLayout;horizontal=1;startSize=30;horizontalStack=0;resizeParent=1;resizeParentMax=0;resizeLast=0;collapsible=1;marginBottom=0;whiteSpace=wrap;html=1;" vertex="1" parent="1">
          <mxGeometry x="730" y="280" width="140" height="104" as="geometry" />
        </mxCell>
        <mxCell id="Ekm0_aFzBxtnINHx6pyU-23" value="" style="line;strokeWidth=1;fillColor=none;align=left;verticalAlign=middle;spacingTop=-1;spacingLeft=3;spacingRight=3;rotatable=0;labelPosition=right;points=[];portConstraint=eastwest;strokeColor=inherit;" vertex="1" parent="Ekm0_aFzBxtnINHx6pyU-22">
          <mxGeometry y="30" width="140" height="8" as="geometry" />
        </mxCell>
        <mxCell id="Ekm0_aFzBxtnINHx6pyU-24" value="+quack: String" style="text;strokeColor=none;fillColor=none;align=left;verticalAlign=top;spacingLeft=4;spacingRight=4;overflow=hidden;rotatable=0;points=[[0,0.5],[1,0.5]];portConstraint=eastwest;whiteSpace=wrap;html=1;" vertex="1" parent="Ekm0_aFzBxtnINHx6pyU-22">
          <mxGeometry y="38" width="140" height="66" as="geometry" />
        </mxCell>
        <mxCell id="Ekm0_aFzBxtnINHx6pyU-25" value="NormalSwim" style="swimlane;fontStyle=1;align=center;verticalAlign=top;childLayout=stackLayout;horizontal=1;startSize=30;horizontalStack=0;resizeParent=1;resizeParentMax=0;resizeLast=0;collapsible=1;marginBottom=0;whiteSpace=wrap;html=1;" vertex="1" parent="1">
          <mxGeometry x="355" y="290" width="140" height="104" as="geometry" />
        </mxCell>
        <mxCell id="Ekm0_aFzBxtnINHx6pyU-26" value="" style="line;strokeWidth=1;fillColor=none;align=left;verticalAlign=middle;spacingTop=-1;spacingLeft=3;spacingRight=3;rotatable=0;labelPosition=right;points=[];portConstraint=eastwest;strokeColor=inherit;" vertex="1" parent="Ekm0_aFzBxtnINHx6pyU-25">
          <mxGeometry y="30" width="140" height="8" as="geometry" />
        </mxCell>
        <mxCell id="Ekm0_aFzBxtnINHx6pyU-27" value="+swim: String" style="text;strokeColor=none;fillColor=none;align=left;verticalAlign=top;spacingLeft=4;spacingRight=4;overflow=hidden;rotatable=0;points=[[0,0.5],[1,0.5]];portConstraint=eastwest;whiteSpace=wrap;html=1;" vertex="1" parent="Ekm0_aFzBxtnINHx6pyU-25">
          <mxGeometry y="38" width="140" height="66" as="geometry" />
        </mxCell>
        <mxCell id="Ekm0_aFzBxtnINHx6pyU-29" value="Extends" style="endArrow=block;endSize=16;endFill=0;html=1;rounded=0;exitX=0.5;exitY=0;exitDx=0;exitDy=0;entryX=0;entryY=0.5;entryDx=0;entryDy=0;" edge="1" parent="1" source="Ekm0_aFzBxtnINHx6pyU-13" target="Ekm0_aFzBxtnINHx6pyU-7">
          <mxGeometry width="160" relative="1" as="geometry">
            <mxPoint x="350" y="240" as="sourcePoint" />
            <mxPoint x="510" y="240" as="targetPoint" />
          </mxGeometry>
        </mxCell>
        <mxCell id="Ekm0_aFzBxtnINHx6pyU-30" value="Extends" style="endArrow=block;endSize=16;endFill=0;html=1;rounded=0;exitX=0.5;exitY=0;exitDx=0;exitDy=0;entryX=-0.02;entryY=0.93;entryDx=0;entryDy=0;entryPerimeter=0;" edge="1" parent="1" source="Ekm0_aFzBxtnINHx6pyU-16" target="Ekm0_aFzBxtnINHx6pyU-7">
          <mxGeometry width="160" relative="1" as="geometry">
            <mxPoint x="260" y="290" as="sourcePoint" />
            <mxPoint x="480" y="204" as="targetPoint" />
          </mxGeometry>
        </mxCell>
        <mxCell id="Ekm0_aFzBxtnINHx6pyU-31" value="Extends" style="endArrow=block;endSize=16;endFill=0;html=1;rounded=0;exitX=0.5;exitY=0;exitDx=0;exitDy=0;entryX=0.529;entryY=1.064;entryDx=0;entryDy=0;entryPerimeter=0;" edge="1" parent="1" source="Ekm0_aFzBxtnINHx6pyU-25" target="Ekm0_aFzBxtnINHx6pyU-7">
          <mxGeometry width="160" relative="1" as="geometry">
            <mxPoint x="260" y="300" as="sourcePoint" />
            <mxPoint x="327" y="242" as="targetPoint" />
          </mxGeometry>
        </mxCell>
        <mxCell id="Ekm0_aFzBxtnINHx6pyU-32" value="Extends" style="endArrow=block;endSize=16;endFill=0;html=1;rounded=0;entryX=0.526;entryY=1.064;entryDx=0;entryDy=0;entryPerimeter=0;" edge="1" parent="1" source="Ekm0_aFzBxtnINHx6pyU-19" target="Ekm0_aFzBxtnINHx6pyU-10">
          <mxGeometry width="160" relative="1" as="geometry">
            <mxPoint x="110" y="300" as="sourcePoint" />
            <mxPoint x="330" y="214" as="targetPoint" />
          </mxGeometry>
        </mxCell>
        <mxCell id="Ekm0_aFzBxtnINHx6pyU-33" value="Extends" style="endArrow=block;endSize=16;endFill=0;html=1;rounded=0;entryX=1.011;entryY=0.615;entryDx=0;entryDy=0;entryPerimeter=0;exitX=0.56;exitY=0.027;exitDx=0;exitDy=0;exitPerimeter=0;" edge="1" parent="1" source="Ekm0_aFzBxtnINHx6pyU-22" target="Ekm0_aFzBxtnINHx6pyU-10">
          <mxGeometry width="160" relative="1" as="geometry">
            <mxPoint x="631" y="300" as="sourcePoint" />
            <mxPoint x="614" y="251" as="targetPoint" />
          </mxGeometry>
        </mxCell>
      </root>
    </mxGraphModel>
  </diagram>
</mxfile>
